<svg width="30" height="30" viewBox="0 0 30 30" fill="none" xmlns="http://www.w3.org/2000/svg">
<path d="M25.4348 7.66305H4.56521C3.3913 7.66305 2.44565 6.7174 2.44565 5.54348C2.44565 4.36957 3.3913 3.42392 4.56521 3.42392H25.4348C26.6087 3.42392 27.5543 4.36957 27.5543 5.54348C27.5543 6.7174 26.6087 7.66305 25.4348 7.66305ZM27.5543 15C27.5543 13.8261 26.6087 12.8804 25.4348 12.8804H4.56521C3.3913 12.8804 2.44565 13.8261 2.44565 15C2.44565 16.1739 3.3913 17.1196 4.56521 17.1196H25.4348C26.6087 17.1196 27.5543 16.1739 27.5543 15ZM27.5543 24.4565C27.5543 23.2826 26.6087 22.337 25.4348 22.337H4.56521C3.3913 22.337 2.44565 23.2826 2.44565 24.4565C2.44565 25.6304 3.3913 26.5761 4.56521 26.5761H25.4348C26.6087 26.5761 27.5543 25.6304 27.5543 24.4565Z" fill="white"/>
</svg>
