<svg width="30" height="30" viewBox="0 0 30 30" fill="none" xmlns="http://www.w3.org/2000/svg">
<g clip-path="url(#clip0_4_87)">
<path d="M12.1359 0.9375H1.875C1.62636 0.9375 1.3879 1.03627 1.21209 1.21209C1.03627 1.3879 0.9375 1.62636 0.9375 1.875V12.1359C0.9375 12.3846 1.03627 12.623 1.21209 12.7989C1.3879 12.9747 1.62636 13.0734 1.875 13.0734H12.1359C12.3846 13.0734 12.623 12.9747 12.7989 12.7989C12.9747 12.623 13.0734 12.3846 13.0734 12.1359V1.875C13.0734 1.62636 12.9747 1.3879 12.7989 1.21209C12.623 1.03627 12.3846 0.9375 12.1359 0.9375ZM11.1984 11.1984H2.8125V2.8125H11.1984V11.1984Z" fill="white"/>
<path d="M28.125 0.9375H17.8641C17.6154 0.9375 17.377 1.03627 17.2011 1.21209C17.0253 1.3879 16.9266 1.62636 16.9266 1.875V12.1359C16.9266 12.3846 17.0253 12.623 17.2011 12.7989C17.377 12.9747 17.6154 13.0734 17.8641 13.0734H28.125C28.3736 13.0734 28.6121 12.9747 28.7879 12.7989C28.9637 12.623 29.0625 12.3846 29.0625 12.1359V1.875C29.0625 1.62636 28.9637 1.3879 28.7879 1.21209C28.6121 1.03627 28.3736 0.9375 28.125 0.9375ZM27.1875 11.1984H18.8016V2.8125H27.1875V11.1984Z" fill="white"/>
<path d="M12.1359 16.9266H1.875C1.62636 16.9266 1.3879 17.0253 1.21209 17.2012C1.03627 17.377 0.9375 17.6154 0.9375 17.8641V28.125C0.9375 28.3737 1.03627 28.6121 1.21209 28.7879C1.3879 28.9637 1.62636 29.0625 1.875 29.0625H12.1359C12.3846 29.0625 12.623 28.9637 12.7989 28.7879C12.9747 28.6121 13.0734 28.3737 13.0734 28.125V17.8641C13.0734 17.6154 12.9747 17.377 12.7989 17.2012C12.623 17.0253 12.3846 16.9266 12.1359 16.9266ZM11.1984 27.1875H2.8125V18.8016H11.1984V27.1875Z" fill="white"/>
<path d="M28.125 16.9266H17.8641C17.6154 16.9266 17.377 17.0253 17.2011 17.2012C17.0253 17.377 16.9266 17.6154 16.9266 17.8641V28.125C16.9266 28.3737 17.0253 28.6121 17.2011 28.7879C17.377 28.9637 17.6154 29.0625 17.8641 29.0625H28.125C28.3736 29.0625 28.6121 28.9637 28.7879 28.7879C28.9637 28.6121 29.0625 28.3737 29.0625 28.125V17.8641C29.0625 17.6154 28.9637 17.377 28.7879 17.2012C28.6121 17.0253 28.3736 16.9266 28.125 16.9266ZM27.1875 27.1875H18.8016V18.8016H27.1875V27.1875Z" fill="white"/>
</g>
<defs>
<clipPath id="clip0_4_87">
<rect width="30" height="30" fill="white"/>
</clipPath>
</defs>
</svg>
