<svg width="32" height="28" viewBox="0 0 32 28" fill="none" xmlns="http://www.w3.org/2000/svg">
<g filter="url(#filter0_d_264_83)">
<path d="M24.9545 0H7.04552C6.23813 0.00111891 5.46413 0.329423 4.89322 0.912927C4.32231 1.49643 4.00109 2.28751 4 3.11271V16.8915C4.0011 17.7163 4.32245 18.507 4.89347 19.0898C5.4645 19.6726 6.23851 20 7.04552 20H24.9545C25.7615 20 26.5355 19.6726 27.1065 19.0898C27.6776 18.507 27.9989 17.7163 28 16.8915V3.11271C27.9989 2.28751 27.6777 1.49643 27.1068 0.912927C26.5359 0.329423 25.7619 0.00111891 24.9545 0ZM7.04552 0.845845H24.9545C25.5427 0.845845 26.1069 1.08467 26.5228 1.50979C26.9387 1.93491 27.1724 2.5115 27.1724 3.11271V4.14464H4.82759V3.11271C4.82759 2.5115 5.06126 1.93491 5.4772 1.50979C5.89315 1.08467 6.45729 0.845845 7.04552 0.845845ZM24.9545 19.1542H7.04552C6.458 19.1542 5.89449 18.9159 5.47866 18.4917C5.06284 18.0675 4.82868 17.492 4.82759 16.8915V4.99048H27.1724V16.8915C27.1713 17.492 26.9372 18.0675 26.5213 18.4917C26.1055 18.9159 25.542 19.1542 24.9545 19.1542Z" fill="white"/>
<path d="M7.31131 3.07465C7.41808 3.07218 7.52183 3.03801 7.60993 2.97631C7.69803 2.91461 7.76665 2.82804 7.80745 2.72717C7.84824 2.6263 7.85944 2.51547 7.83968 2.40821C7.81991 2.30094 7.77004 2.20187 7.69614 2.12307C7.5928 2.02126 7.45485 1.96436 7.31131 1.96436C7.16777 1.96436 7.02982 2.02126 6.92648 2.12307C6.85258 2.20187 6.80271 2.30094 6.78294 2.40821C6.76318 2.51547 6.77438 2.6263 6.81517 2.72717C6.85597 2.82804 6.9246 2.91461 7.01269 2.97631C7.10079 3.03801 7.20454 3.07218 7.31131 3.07465Z" fill="white"/>
<path d="M9.48319 3.07465C9.58995 3.07218 9.69371 3.03801 9.78181 2.97631C9.8699 2.91461 9.93853 2.82804 9.97932 2.72717C10.0201 2.6263 10.0313 2.51547 10.0116 2.40821C9.99179 2.30094 9.94191 2.20187 9.86801 2.12307C9.76467 2.02126 9.62673 1.96436 9.48319 1.96436C9.33965 1.96436 9.2017 2.02126 9.09836 2.12307C9.02446 2.20187 8.97458 2.30094 8.95482 2.40821C8.93506 2.51547 8.94625 2.6263 8.98705 2.72717C9.02784 2.82804 9.09647 2.91461 9.18457 2.97631C9.27266 3.03801 9.37642 3.07218 9.48319 3.07465Z" fill="white"/>
<path d="M11.6707 3.07465C11.7775 3.07218 11.8812 3.03801 11.9693 2.97631C12.0574 2.91461 12.126 2.82804 12.1668 2.72717C12.2076 2.6263 12.2188 2.51547 12.1991 2.40821C12.1793 2.30094 12.1294 2.20187 12.0555 2.12307C11.9522 2.02126 11.8142 1.96436 11.6707 1.96436C11.5271 1.96436 11.3892 2.02126 11.2859 2.12307C11.212 2.20187 11.1621 2.30094 11.1423 2.40821C11.1226 2.51547 11.1338 2.6263 11.1745 2.72717C11.2153 2.82804 11.284 2.91461 11.3721 2.97631C11.4602 3.03801 11.5639 3.07218 11.6707 3.07465Z" fill="white"/>
<path d="M22.8493 10.239C22.8157 10.1314 22.747 10.0389 22.6548 9.97674L16.2038 6.17044C16.1409 6.13332 16.0695 6.11378 15.9969 6.11378C15.9243 6.11378 15.8529 6.13332 15.79 6.17044L9.33898 9.97674C9.27627 10.0139 9.22422 10.0673 9.18804 10.1315C9.15186 10.1957 9.13281 10.2685 9.13281 10.3426C9.13281 10.4167 9.15186 10.4895 9.18804 10.5537C9.22422 10.6179 9.27627 10.6712 9.33898 10.7084L11.0314 11.7107V15.1279C11.0325 15.1932 11.0484 15.2574 11.0778 15.3153C11.1073 15.3733 11.1494 15.4235 11.201 15.462C11.2217 15.5213 15.7528 18.1265 15.7735 18.1687C15.8364 18.2059 15.9077 18.2254 15.9804 18.2254C16.053 18.2254 16.1243 18.2059 16.1873 18.1687L20.739 15.4959L20.8424 15.4028C20.9036 15.3242 20.9398 15.2282 20.9459 15.1279V11.7107L22.0341 11.0848V13.3136C22.0341 13.4258 22.0777 13.5333 22.1553 13.6126C22.2329 13.692 22.3382 13.7365 22.4479 13.7365C22.5577 13.7365 22.6629 13.692 22.7405 13.6126C22.8181 13.5333 22.8617 13.4258 22.8617 13.3136V10.3531C22.8551 10.3154 22.8509 10.2773 22.8493 10.239ZM15.9969 7.02051L20.9045 9.9133H15.9969C15.8872 9.9133 15.7819 9.95786 15.7043 10.0372C15.6267 10.1165 15.5831 10.2241 15.5831 10.3362C15.5831 10.4484 15.6267 10.556 15.7043 10.6353C15.7819 10.7146 15.8872 10.7591 15.9969 10.7591H20.9045L15.9969 13.6562L10.3735 10.3362L15.9969 7.02051ZM20.1348 14.8911L15.9969 17.3144L11.859 14.8911V12.1971L15.79 14.5105C15.8544 14.5434 15.9249 14.5622 15.9969 14.5654C16.0688 14.5617 16.1392 14.543 16.2038 14.5105L20.1348 12.1971V14.8911Z" fill="white"/>
</g>
<defs>
<filter id="filter0_d_264_83" x="0" y="0" width="32" height="28" filterUnits="userSpaceOnUse" color-interpolation-filters="sRGB">
<feFlood flood-opacity="0" result="BackgroundImageFix"/>
<feColorMatrix in="SourceAlpha" type="matrix" values="0 0 0 0 0 0 0 0 0 0 0 0 0 0 0 0 0 0 127 0" result="hardAlpha"/>
<feOffset dy="4"/>
<feGaussianBlur stdDeviation="2"/>
<feComposite in2="hardAlpha" operator="out"/>
<feColorMatrix type="matrix" values="0 0 0 0 0 0 0 0 0 0 0 0 0 0 0 0 0 0 0.25 0"/>
<feBlend mode="normal" in2="BackgroundImageFix" result="effect1_dropShadow_264_83"/>
<feBlend mode="normal" in="SourceGraphic" in2="effect1_dropShadow_264_83" result="shape"/>
</filter>
</defs>
</svg>
