<svg width="24" height="24" viewBox="0 0 24 24" fill="none" xmlns="http://www.w3.org/2000/svg">
<g clip-path="url(#clip0_264_75)">
<path d="M2.25 6C2.25 4.725 3.225 3.75 4.5 3.75H7.5" stroke="white" stroke-miterlimit="10" stroke-linecap="round" stroke-linejoin="round"/>
<path d="M14.25 14.25C14.25 12.6 15.6 11.25 17.25 11.25H20.25C21.075 11.25 21.75 10.575 21.75 9.75C21.75 8.925 21.075 8.25 20.25 8.25H4.5C3.225 8.25 2.25 7.2 2.25 6V18C2.25 19.2 3.225 20.25 4.5 20.25H20.25C21.075 20.25 21.75 19.575 21.75 18.75C21.75 17.925 21.075 17.25 20.25 17.25H17.25C15.6 17.25 14.25 15.9 14.25 14.25Z" stroke="white" stroke-miterlimit="10" stroke-linecap="round" stroke-linejoin="round"/>
<path d="M8.25 6L18 2.25L19.5 6H5.25" stroke="white" stroke-miterlimit="10" stroke-linecap="round" stroke-linejoin="round"/>
<path d="M17.25 14.25H18.75" stroke="white" stroke-width="2" stroke-miterlimit="10" stroke-linecap="round" stroke-linejoin="round"/>
<path d="M21.75 9.75V18.75" stroke="white" stroke-miterlimit="10" stroke-linecap="round" stroke-linejoin="round"/>
</g>
<defs>
<clipPath id="clip0_264_75">
<rect width="24" height="24" rx="12" fill="white"/>
</clipPath>
</defs>
</svg>
