<svg width="24" height="24" viewBox="0 0 24 24" fill="none" xmlns="http://www.w3.org/2000/svg">
<path d="M1.21094 22.2H4.67294V15.834H1.21094V22.2Z" fill="white"/>
<path d="M5.74219 22.2H9.20419V14.304H5.74219V22.2Z" fill="white"/>
<path d="M10.2656 22.2H13.7336V12H10.2656V22.2Z" fill="white"/>
<path d="M14.7969 22.2H18.2589V9.312H14.7969V22.2Z" fill="white"/>
<path d="M19.3242 22.2H22.7862V6.516H19.3242V22.2Z" fill="white"/>
<path d="M18.5584 3.54C18.5584 3.51 18.5524 3.486 18.5464 3.456C18.5404 3.432 18.5464 3.408 18.5404 3.384C18.5404 3.372 18.5344 3.366 18.5284 3.354C18.5284 3.348 18.5284 3.342 18.5224 3.342C18.5224 3.336 18.5164 3.33 18.5164 3.324C18.4924 3.27 18.4684 3.222 18.4264 3.18C18.4264 3.174 18.4204 3.168 18.4144 3.168C18.4144 3.168 18.4144 3.162 18.4084 3.162C18.4084 3.162 18.4024 3.156 18.3964 3.156C18.3544 3.114 18.3124 3.084 18.2584 3.054C18.2524 3.054 18.2524 3.048 18.2464 3.048H18.2404C18.2344 3.048 18.2284 3.042 18.2224 3.042C18.1744 3.024 18.1144 3.012 18.0604 3.006C18.0544 3.006 18.0544 3.006 18.0424 3.006C18.0364 3.006 18.0304 3.006 18.0244 3.006C17.9824 3.006 17.9344 3.012 17.8864 3.024L13.7704 4.242C13.4944 4.32 13.3384 4.62 13.4164 4.902C13.4824 5.136 13.6864 5.292 13.9144 5.292C13.9624 5.292 14.0104 5.286 14.0584 5.274L16.0444 4.686C12.0604 8.142 7.11641 10.554 1.62641 11.7C1.35041 11.76 1.17041 12.042 1.22441 12.33C1.27241 12.582 1.48841 12.756 1.72841 12.756C1.76441 12.756 1.79441 12.75 1.83041 12.744C7.42241 11.58 12.4684 9.126 16.5664 5.616L15.9844 6.948C15.8704 7.218 15.9844 7.536 16.2424 7.656C16.3144 7.686 16.3864 7.704 16.4524 7.704C16.6504 7.704 16.8364 7.59 16.9204 7.392L18.5104 3.756V3.75C18.5224 3.726 18.5224 3.696 18.5284 3.672C18.5344 3.642 18.5464 3.612 18.5524 3.576C18.5524 3.564 18.5584 3.552 18.5584 3.54Z" fill="white"/>
</svg>
