<svg width="24" height="24" viewBox="0 0 24 24" fill="none" xmlns="http://www.w3.org/2000/svg">
<mask id="path-1-inside-1_266_177" fill="white">
<path d="M4.55203 10.695C4.60795 10.8305 4.71422 10.939 4.84849 10.9977C4.98276 11.0565 5.13459 11.0609 5.27203 11.01L8.83078 9.64875C8.96418 9.5914 9.07023 9.4847 9.12676 9.35096C9.18328 9.21722 9.18591 9.06681 9.13408 8.93118C9.08225 8.79555 8.97998 8.68521 8.84867 8.62326C8.71736 8.5613 8.56717 8.55251 8.42953 8.59875L6.02578 9.5175C8.65078 3.97125 16.8445 4.66875 18.4608 10.6425C18.4996 10.7867 18.5941 10.9096 18.7235 10.9841C18.8529 11.0587 19.0066 11.0788 19.1508 11.04C19.295 11.0012 19.4179 10.9067 19.4924 10.7773C19.567 10.6479 19.5871 10.4942 19.5483 10.35C17.6733 3.4425 8.22328 2.5575 5.06953 8.92125L4.23328 6.73499C4.17246 6.60879 4.06673 6.50983 3.93679 6.45747C3.80684 6.40511 3.66204 6.40313 3.53071 6.45191C3.39938 6.50069 3.29098 6.59672 3.22672 6.72121C3.16246 6.8457 3.14697 6.98969 3.18328 7.125C3.18328 7.125 4.53703 10.6837 4.55203 10.695Z"/>
</mask>
<path d="M4.55203 10.695C4.60795 10.8305 4.71422 10.939 4.84849 10.9977C4.98276 11.0565 5.13459 11.0609 5.27203 11.01L8.83078 9.64875C8.96418 9.5914 9.07023 9.4847 9.12676 9.35096C9.18328 9.21722 9.18591 9.06681 9.13408 8.93118C9.08225 8.79555 8.97998 8.68521 8.84867 8.62326C8.71736 8.5613 8.56717 8.55251 8.42953 8.59875L6.02578 9.5175C8.65078 3.97125 16.8445 4.66875 18.4608 10.6425C18.4996 10.7867 18.5941 10.9096 18.7235 10.9841C18.8529 11.0587 19.0066 11.0788 19.1508 11.04C19.295 11.0012 19.4179 10.9067 19.4924 10.7773C19.567 10.6479 19.5871 10.4942 19.5483 10.35C17.6733 3.4425 8.22328 2.5575 5.06953 8.92125L4.23328 6.73499C4.17246 6.60879 4.06673 6.50983 3.93679 6.45747C3.80684 6.40511 3.66204 6.40313 3.53071 6.45191C3.39938 6.50069 3.29098 6.59672 3.22672 6.72121C3.16246 6.8457 3.14697 6.98969 3.18328 7.125C3.18328 7.125 4.53703 10.6837 4.55203 10.695Z" fill="white"/>
<path d="M4.55203 10.695L6.40076 9.93197L6.19128 9.42443L5.75203 9.095L4.55203 10.695ZM5.27203 11.01L5.96635 12.8856L5.97648 12.8819L5.98656 12.878L5.27203 11.01ZM8.83078 9.64875L9.54531 11.5168L9.58329 11.5022L9.62064 11.4862L8.83078 9.64875ZM8.42953 8.59875L7.79272 6.70284L7.75382 6.7159L7.71548 6.73056L8.42953 8.59875ZM6.02578 9.5175L4.21803 8.6619L2.08723 13.164L6.73983 11.3857L6.02578 9.5175ZM18.4608 10.6425L20.3921 10.123L20.3914 10.1202L18.4608 10.6425ZM19.5483 10.35L21.4797 9.83052L21.4784 9.82607L19.5483 10.35ZM5.06953 8.92125L3.20152 9.63577L4.83334 13.9019L6.86154 9.80933L5.06953 8.92125ZM4.23328 6.73499L6.10129 6.02047L6.07135 5.94218L6.03496 5.86668L4.23328 6.73499ZM3.18328 7.125L1.25162 7.64334L1.27791 7.74129L1.31396 7.83608L3.18328 7.125ZM2.70331 11.458C2.95672 12.072 3.43832 12.5638 4.04685 12.8301L5.65013 9.16542C5.99011 9.31417 6.25918 9.58894 6.40076 9.93197L2.70331 11.458ZM4.04685 12.8301C4.65538 13.0963 5.34344 13.1162 5.96635 12.8856L4.57771 9.13438C4.92573 9.00555 5.31014 9.01668 5.65013 9.16542L4.04685 12.8301ZM5.98656 12.878L9.54531 11.5168L8.11626 7.78074L4.55751 9.14199L5.98656 12.878ZM9.62064 11.4862C10.2283 11.2249 10.7114 10.7389 10.969 10.1296L7.28455 8.57232C7.42901 8.23054 7.70004 7.95786 8.04093 7.81132L9.62064 11.4862ZM10.969 10.1296C11.2265 9.52035 11.2384 8.83511 11.0023 8.21724L7.26584 9.64511C7.13339 9.2985 7.14009 8.9141 7.28455 8.57232L10.969 10.1296ZM11.0023 8.21724C10.7662 7.59937 10.3003 7.09674 9.70211 6.81449L7.99522 10.432C7.65965 10.2737 7.3983 9.99173 7.26584 9.64511L11.0023 8.21724ZM9.70211 6.81449C9.10392 6.53224 8.41975 6.49223 7.79272 6.70284L9.06634 10.4947C8.7146 10.6128 8.33079 10.5904 7.99522 10.432L9.70211 6.81449ZM7.71548 6.73056L5.31173 7.64931L6.73983 11.3857L9.14358 10.4669L7.71548 6.73056ZM7.83353 10.3731C9.66582 6.50174 15.4011 6.99158 16.5302 11.1648L20.3914 10.1202C18.288 2.34591 7.63575 1.44075 4.21803 8.6619L7.83353 10.3731ZM16.5294 11.162C16.706 11.8184 17.1361 12.3778 17.7251 12.7171L19.7218 9.25115C20.052 9.44139 20.2932 9.75501 20.3921 10.123L16.5294 11.162ZM17.7251 12.7171C18.3141 13.0565 19.0138 13.1479 19.6703 12.9714L18.6313 9.10864C18.9993 9.00965 19.3916 9.06092 19.7218 9.25115L17.7251 12.7171ZM19.6703 12.9714C20.3267 12.7948 20.8861 12.3647 21.2254 11.7757L17.7594 9.77896C17.9497 9.44875 18.2633 9.20762 18.6313 9.10864L19.6703 12.9714ZM21.2254 11.7757C21.5648 11.1867 21.6562 10.487 21.4796 9.83053L17.6169 10.8695C17.5179 10.5014 17.5692 10.1092 17.7594 9.77896L21.2254 11.7757ZM21.4784 9.82607C19.1191 1.13415 7.24475 0.0279393 3.27752 8.03316L6.86154 9.80933C9.20181 5.08705 16.2275 5.75084 17.6181 10.8739L21.4784 9.82607ZM6.93754 8.20672L6.10129 6.02047L2.36527 7.44952L3.20152 9.63577L6.93754 8.20672ZM6.03496 5.86668C5.75787 5.29175 5.27622 4.84092 4.68425 4.6024L3.18933 8.31254C2.85725 8.17874 2.58705 7.92583 2.43161 7.60331L6.03496 5.86668ZM4.68425 4.6024C4.09228 4.36388 3.43261 4.35484 2.83434 4.57706L4.22708 8.32676C3.89146 8.45142 3.52141 8.44635 3.18933 8.31254L4.68425 4.6024ZM2.83434 4.57706C2.23606 4.79927 1.74224 5.23675 1.44951 5.80387L5.00394 7.63855C4.83972 7.95669 4.5627 8.2021 4.22708 8.32676L2.83434 4.57706ZM1.44951 5.80387C1.15678 6.37099 1.08621 7.02693 1.25162 7.64334L5.11494 6.60665C5.20774 6.95244 5.16815 7.32041 5.00394 7.63855L1.44951 5.80387ZM3.18328 7.125C1.31396 7.83608 1.31397 7.8361 1.31398 7.83613C1.31399 7.83616 1.31401 7.8362 1.31403 7.83626C1.31407 7.83637 1.31414 7.83653 1.31422 7.83675C1.31439 7.83719 1.31463 7.83784 1.31496 7.8387C1.31562 7.84043 1.31659 7.84299 1.31788 7.84637C1.32045 7.85313 1.32426 7.86315 1.32923 7.87622C1.33918 7.90234 1.35375 7.94064 1.3723 7.98937C1.40939 8.08684 1.46239 8.22605 1.52603 8.39313C1.6533 8.72725 1.82321 9.17303 1.99365 9.61932C2.16395 10.0652 2.33533 10.5131 2.46532 10.8509C2.53012 11.0192 2.58574 11.163 2.62613 11.2664C2.64594 11.3171 2.66421 11.3635 2.67882 11.3998C2.68543 11.4162 2.69539 11.4408 2.70607 11.4659C2.71026 11.4758 2.72223 11.5039 2.73802 11.5377C2.74438 11.5513 2.76379 11.5928 2.79141 11.644C2.80397 11.6672 2.83422 11.7225 2.87809 11.7896C2.90067 11.8233 2.95871 11.9039 2.9949 11.9501C3.05374 12.0198 3.22974 12.1955 3.35203 12.295L5.75203 9.095C5.87427 9.19443 6.0502 9.37006 6.10896 9.43964C6.14507 9.4858 6.20302 9.56623 6.2255 9.59985C6.26918 9.66661 6.29919 9.72144 6.31146 9.74418C6.33853 9.79433 6.35722 9.83433 6.3627 9.84608C6.37674 9.87615 6.38632 9.89882 6.38751 9.90162C6.39218 9.91262 6.39369 9.91657 6.38956 9.90632C6.38269 9.88925 6.37034 9.85802 6.3517 9.81034C6.31519 9.71691 6.26258 9.58088 6.19835 9.41402C6.0703 9.08133 5.90043 8.63741 5.73042 8.19223C5.56054 7.74743 5.39108 7.30282 5.26405 6.96932C5.20054 6.80259 5.14766 6.66369 5.11067 6.56649C5.09217 6.51789 5.07764 6.47972 5.06775 6.45371C5.0628 6.44071 5.05901 6.43074 5.05646 6.42404C5.05518 6.42068 5.05421 6.41814 5.05357 6.41645C5.05325 6.4156 5.053 6.41496 5.05284 6.41453C5.05276 6.41432 5.0527 6.41416 5.05266 6.41406C5.05264 6.41401 5.05263 6.41397 5.05262 6.41394C5.05261 6.41392 5.0526 6.41391 3.18328 7.125Z" fill="white" mask="url(#path-1-inside-1_266_177)"/>
<mask id="path-3-inside-2_266_177" fill="white">
<path d="M20.8154 16.665L19.5329 13.3125C19.4959 13.2238 19.438 13.1453 19.3641 13.0837C19.2874 13.0204 19.1954 12.9784 19.0973 12.962C18.9992 12.9455 18.8985 12.9552 18.8054 12.99L15.4529 14.2725C15.3195 14.3298 15.2134 14.4365 15.1569 14.5703C15.1004 14.704 15.0978 14.8544 15.1496 14.9901C15.2014 15.1257 15.3037 15.236 15.435 15.298C15.5663 15.3599 15.7165 15.3687 15.8541 15.3225L18.0516 14.4825C15.4266 20.0287 7.23288 19.3312 5.61288 13.3575C5.57419 13.214 5.4803 13.0917 5.35172 13.0172C5.22315 12.9428 5.07033 12.9222 4.92663 12.96C4.78273 12.9996 4.6601 13.094 4.58507 13.223C4.51005 13.3521 4.48861 13.5053 4.52538 13.65C6.40038 20.5575 15.8541 21.4425 19.0041 15.075L19.7541 17.0587C19.78 17.1284 19.8193 17.1923 19.8699 17.2468C19.9204 17.3013 19.9812 17.3453 20.0488 17.3763C20.1163 17.4073 20.1893 17.4247 20.2636 17.4274C20.3379 17.4302 20.4119 17.4183 20.4816 17.3925C20.5513 17.3666 20.6152 17.3273 20.6697 17.2768C20.7242 17.2262 20.7682 17.1654 20.7992 17.0979C20.8302 17.0303 20.8475 16.9573 20.8503 16.883C20.8531 16.8088 20.8412 16.7347 20.8154 16.665Z"/>
</mask>
<path d="M20.8154 16.665L19.5329 13.3125C19.4959 13.2238 19.438 13.1453 19.3641 13.0837C19.2874 13.0204 19.1954 12.9784 19.0973 12.962C18.9992 12.9455 18.8985 12.9552 18.8054 12.99L15.4529 14.2725C15.3195 14.3298 15.2134 14.4365 15.1569 14.5703C15.1004 14.704 15.0978 14.8544 15.1496 14.9901C15.2014 15.1257 15.3037 15.236 15.435 15.298C15.5663 15.3599 15.7165 15.3687 15.8541 15.3225L18.0516 14.4825C15.4266 20.0287 7.23288 19.3312 5.61288 13.3575C5.57419 13.214 5.4803 13.0917 5.35172 13.0172C5.22315 12.9428 5.07033 12.9222 4.92663 12.96C4.78273 12.9996 4.6601 13.094 4.58507 13.223C4.51005 13.3521 4.48861 13.5053 4.52538 13.65C6.40038 20.5575 15.8541 21.4425 19.0041 15.075L19.7541 17.0587C19.78 17.1284 19.8193 17.1923 19.8699 17.2468C19.9204 17.3013 19.9812 17.3453 20.0488 17.3763C20.1163 17.4073 20.1893 17.4247 20.2636 17.4274C20.3379 17.4302 20.4119 17.4183 20.4816 17.3925C20.5513 17.3666 20.6152 17.3273 20.6697 17.2768C20.7242 17.2262 20.7682 17.1654 20.7992 17.0979C20.8302 17.0303 20.8475 16.9573 20.8503 16.883C20.8531 16.8088 20.8412 16.7347 20.8154 16.665Z" fill="white"/>
<path d="M20.8154 16.665L22.6905 15.9693L22.687 15.9598L22.6834 15.9504L20.8154 16.665ZM19.5329 13.3125L21.4009 12.5979L21.3903 12.5703L21.379 12.5431L19.5329 13.3125ZM19.3641 13.0837L20.6442 11.547L20.6374 11.5414L19.3641 13.0837ZM18.8054 12.99L18.1052 11.1166L18.098 11.1193L18.0908 11.122L18.8054 12.99ZM15.4529 14.2725L14.7383 12.4045L14.7003 12.419L14.663 12.4351L15.4529 14.2725ZM15.8541 15.3225L16.4909 17.2184L16.5299 17.2053L16.5682 17.1907L15.8541 15.3225ZM18.0516 14.4825L19.8594 15.3381L21.9903 10.8358L17.3375 12.6143L18.0516 14.4825ZM5.61288 13.3575L3.68188 13.8783L3.6826 13.881L5.61288 13.3575ZM4.92663 12.96L4.41763 11.0258L4.40688 11.0287L4.39616 11.0316L4.92663 12.96ZM4.52538 13.65L2.58701 14.1427L2.59099 14.1583L2.59522 14.1739L4.52538 13.65ZM19.0041 15.075L20.8749 14.3677L19.2495 10.0685L17.2115 14.1882L19.0041 15.075ZM19.7541 17.0587L21.6293 16.363L21.6249 16.3515L19.7541 17.0587ZM22.6834 15.9504L21.4009 12.5979L17.6649 14.0271L18.9474 17.3796L22.6834 15.9504ZM21.379 12.5431C21.2179 12.1567 20.9658 11.8149 20.6442 11.547L18.0841 14.6205C17.9102 14.4756 17.7739 14.2908 17.6868 14.0819L21.379 12.5431ZM20.6374 11.5414C20.2899 11.2545 19.8728 11.0641 19.4283 10.9895L18.7664 14.9344C18.518 14.8927 18.285 14.7864 18.0908 14.626L20.6374 11.5414ZM19.4283 10.9895C18.9837 10.9149 18.5274 10.9588 18.1052 11.1166L19.5056 14.8634C19.2697 14.9516 19.0147 14.9761 18.7664 14.9344L19.4283 10.9895ZM18.0908 11.122L14.7383 12.4045L16.1675 16.1405L19.52 14.858L18.0908 11.122ZM14.663 12.4351C14.0553 12.6963 13.5722 13.1824 13.3147 13.7916L16.9991 15.3489C16.8547 15.6907 16.5836 15.9634 16.2427 16.1099L14.663 12.4351ZM13.3147 13.7916C13.0572 14.4009 13.0452 15.0861 13.2814 15.704L17.0178 14.2761C17.1503 14.6227 17.1436 15.0071 16.9991 15.3489L13.3147 13.7916ZM13.2814 15.704C13.5175 16.3219 13.9834 16.8245 14.5815 17.1067L16.2884 13.4892C16.624 13.6476 16.8854 13.9295 17.0178 14.2761L13.2814 15.704ZM14.5815 17.1067C15.1797 17.389 15.8639 17.429 16.4909 17.2184L15.2173 13.4266C15.5691 13.3084 15.9529 13.3309 16.2884 13.4892L14.5815 17.1067ZM16.5682 17.1907L18.7657 16.3507L17.3375 12.6143L15.14 13.4543L16.5682 17.1907ZM16.2439 13.6269C14.4123 17.4968 8.67568 17.0102 7.54316 12.834L3.6826 13.881C5.79008 21.6523 16.441 22.5606 19.8594 15.3381L16.2439 13.6269ZM7.54388 12.8367C7.36761 12.1831 6.93991 11.6259 6.35417 11.2866L4.34928 14.7479C4.0207 14.5575 3.78077 14.2449 3.68188 13.8783L7.54388 12.8367ZM6.35417 11.2866C5.76843 10.9473 5.07224 10.8536 4.41763 11.0258L5.43563 14.8941C5.06841 14.9908 4.67787 14.9382 4.34928 14.7479L6.35417 11.2866ZM4.39616 11.0316C3.74736 11.2101 3.19443 11.6359 2.85615 12.2176L6.31399 14.2284C6.12577 14.5521 5.81811 14.789 5.4571 14.8884L4.39616 11.0316ZM2.85615 12.2176C2.51788 12.7993 2.42125 13.4905 2.58701 14.1427L6.46375 13.1573C6.55598 13.5202 6.50221 13.9048 6.31399 14.2284L2.85615 12.2176ZM2.59522 14.1739C4.95442 22.8652 16.8335 23.9732 20.7968 15.9618L17.2115 14.1882C14.8747 18.9118 7.84634 18.2498 6.45553 13.1261L2.59522 14.1739ZM17.1334 15.7823L17.8834 17.766L21.6249 16.3515L20.8749 14.3677L17.1334 15.7823ZM17.879 17.7544C17.9963 18.0704 18.1745 18.3601 18.4037 18.6071L21.336 15.8865C21.4641 16.0245 21.5637 16.1865 21.6292 16.363L17.879 17.7544ZM18.4037 18.6071C18.6329 18.8542 18.9085 19.0536 19.2148 19.1941L20.8827 15.5585C21.0539 15.637 21.2079 15.7484 21.336 15.8865L18.4037 18.6071ZM19.2148 19.1941C19.5211 19.3346 19.852 19.4134 20.1888 19.426L20.3384 15.4288C20.5266 15.4359 20.7115 15.4799 20.8827 15.5585L19.2148 19.1941ZM20.1888 19.426C20.5255 19.4386 20.8614 19.3848 21.1773 19.2676L19.7859 15.5174C19.9625 15.4519 20.1502 15.4218 20.3384 15.4288L20.1888 19.426ZM21.1773 19.2676C21.4933 19.1504 21.783 18.9721 22.03 18.7429L19.3094 15.8106C19.4474 15.6825 19.6094 15.5829 19.7859 15.5174L21.1773 19.2676ZM22.03 18.7429C22.277 18.5137 22.4765 18.2381 22.617 17.9318L18.9813 16.2639C19.0599 16.0927 19.1713 15.9387 19.3094 15.8106L22.03 18.7429ZM22.617 17.9318C22.7575 17.6256 22.8363 17.2946 22.8489 16.9579L18.8517 16.8082C18.8588 16.62 18.9028 16.4351 18.9813 16.2639L22.617 17.9318ZM22.8489 16.9579C22.8615 16.6211 22.8077 16.2852 22.6905 15.9693L18.9403 17.3607C18.8748 17.1842 18.8447 16.9964 18.8517 16.8082L22.8489 16.9579Z" fill="white" mask="url(#path-3-inside-2_266_177)"/>
</svg>
