<svg width="22" height="22" viewBox="0 0 22 22" fill="none" xmlns="http://www.w3.org/2000/svg">
<path d="M14.467 11.3881C15.5062 10.6523 16.2845 9.60499 16.6891 8.39762C17.0937 7.19025 17.1037 5.88546 16.7177 4.67202C16.3316 3.45859 15.5695 2.39944 14.5417 1.64782C13.5138 0.896192 12.2734 0.491074 11.0001 0.491074C9.72671 0.491074 8.48636 0.896192 7.45849 1.64782C6.43061 2.39944 5.66852 3.45859 5.28247 4.67202C4.89641 5.88546 4.90642 7.19025 5.31104 8.39762C5.71567 9.60499 6.49392 10.6523 7.5332 11.3881C5.5065 11.9787 3.72576 13.2102 2.45779 14.898C1.18983 16.5858 0.502924 18.639 0.5 20.75C0.5 20.9489 0.579018 21.1397 0.71967 21.2803C0.860322 21.421 1.05109 21.5 1.25 21.5H20.75C20.9489 21.5 21.1397 21.421 21.2803 21.2803C21.421 21.1397 21.5 20.9489 21.5 20.75C21.4971 18.639 20.8102 16.5858 19.5423 14.898C18.2743 13.2102 16.4936 11.9788 14.467 11.3881ZM6.5 6.5C6.5 5.60999 6.76392 4.73996 7.25839 3.99994C7.75285 3.25992 8.45566 2.68314 9.27792 2.34255C10.1002 2.00195 11.005 1.91284 11.8779 2.08647C12.7508 2.2601 13.5526 2.68869 14.182 3.31802C14.8113 3.94736 15.2399 4.74918 15.4135 5.6221C15.5872 6.49501 15.4981 7.39981 15.1575 8.22208C14.8169 9.04435 14.2401 9.74715 13.5001 10.2416C12.76 10.7361 11.89 11 11 11C9.80694 10.9986 8.66314 10.5241 7.81952 9.68048C6.9759 8.83686 6.50136 7.69306 6.5 6.5ZM2.03375 20C2.22329 17.9512 3.17057 16.0469 4.69021 14.6597C6.20985 13.2725 8.19245 12.5024 10.25 12.5H11.75C13.8076 12.5024 15.7902 13.2725 17.3098 14.6597C18.8294 16.0469 19.7767 17.9512 19.9662 20H2.03375Z" fill="white"/>
</svg>
