<svg width="115" height="115" viewBox="0 0 115 115" fill="none" xmlns="http://www.w3.org/2000/svg">
<mask id="mask0_283_126" style="mask-type:luminance" maskUnits="userSpaceOnUse" x="0" y="0" width="115" height="115">
<path d="M115 0H0V114.21H115V0Z" fill="white"/>
</mask>
<g mask="url(#mask0_283_126)">
<path d="M45.2456 103.262C44.1071 103.262 42.9571 102.857 41.9255 102.033C41.8784 101.997 41.8347 101.957 41.7933 101.916L41.0883 101.217C41.0343 101.163 40.9837 101.104 40.9366 101.043L0.5428 47.8097C0.19205 47.4107 0 46.9162 0 46.401C0 45.5661 0.4945 45.0096 0.64515 44.8578C1.23625 44.2655 2.05735 44.0676 2.8313 44.3264C3.15675 44.4345 3.4017 44.6001 3.5627 44.7335L44.5935 74.6277L110.431 11.2352C111.323 10.329 113.214 10.2979 114.167 11.2651C114.999 12.0861 114.999 13.3074 114.999 13.8284C114.999 14.1929 114.88 14.5472 114.66 14.8382L49.4983 101.039C48.3265 102.508 46.797 103.262 45.2456 103.262ZM44.0795 99.4654C45.4262 100.483 46.4657 99.4723 46.8556 98.9859L107.645 18.5665L45.9045 78.0156C45.3192 78.5791 44.4141 78.6413 43.7575 78.1629L8.0247 52.1292L43.5344 98.925L44.0795 99.4654ZM1.33515 47.2291C1.3432 47.2371 1.35125 47.2452 1.3593 47.2532C1.35125 47.2452 1.34205 47.2371 1.33515 47.2291Z" fill="#00FF47"/>
<path d="M113.326 13.8273H113.336M45.2456 103.262C44.1071 103.262 42.9571 102.857 41.9255 102.033C41.8784 101.997 41.8347 101.957 41.7933 101.916L41.0883 101.217C41.0343 101.163 40.9837 101.104 40.9365 101.043L0.5428 47.8097C0.19205 47.4107 0 46.9162 0 46.401C0 45.5661 0.4945 45.0096 0.64515 44.8578C1.23625 44.2655 2.05735 44.0676 2.8313 44.3264C3.15675 44.4345 3.4017 44.6001 3.5627 44.7335L44.5935 74.6277L110.431 11.2352C111.323 10.329 113.214 10.2979 114.167 11.2651C114.999 12.0861 114.999 13.3074 114.999 13.8284C114.999 14.1929 114.88 14.5472 114.66 14.8382L49.4983 101.039C48.3264 102.508 46.797 103.262 45.2456 103.262ZM44.0795 99.4654C45.4262 100.483 46.4657 99.4723 46.8556 98.9859L107.645 18.5665L45.9045 78.0156C45.3192 78.5791 44.4141 78.6413 43.7575 78.1629L8.0247 52.1292L43.5344 98.925L44.0795 99.4654ZM1.33515 47.2291C1.3432 47.2371 1.35125 47.2452 1.3593 47.2532C1.35125 47.2452 1.34205 47.2371 1.33515 47.2291Z" stroke="#00FF47" stroke-width="4"/>
</g>
</svg>
